<svg width="18" height="15" viewBox="0 0 18 15" fill="none" xmlns="http://www.w3.org/2000/svg">
<path d="M17 7.72461C17 7.34491 16.7178 7.03112 16.3518 6.98146L16.25 6.97461L1.25 6.97461C0.835787 6.97461 0.5 7.3104 0.5 7.72461C0.5 8.10431 0.782154 8.4181 1.14823 8.46776L1.25 8.47461L16.25 8.47461C16.6642 8.47461 17 8.13882 17 7.72461Z" fill="black" stroke="black" stroke-width="0.3"/>
<path d="M7.82899 2.23247C8.12251 1.94021 8.12354 1.46534 7.83128 1.17181C7.56558 0.904974 7.14897 0.879871 6.85489 1.09709L6.77062 1.16953L0.720618 7.19353C0.452981 7.46002 0.428634 7.87813 0.647588 8.1722L0.720574 8.25643L6.77057 14.2814C7.06407 14.5737 7.53895 14.5727 7.83123 14.2792C8.09695 14.0124 8.12029 13.5957 7.90183 13.3025L7.82904 13.2186L2.313 7.7247L7.82899 2.23247Z" fill="black" stroke="black" stroke-width="0.3"/>
</svg>
