<svg width="17" height="16" viewBox="0 0 17 16" fill="none" xmlns="http://www.w3.org/2000/svg">
<path d="M9.45479 15.332H7.54175" stroke="#00357C" stroke-linecap="round" stroke-linejoin="round"/>
<path d="M10.0929 14.0566H6.90454" stroke="#00357C" stroke-linecap="round" stroke-linejoin="round"/>
<path d="M8.5 0.666016V2.57906" stroke="#00357C" stroke-linecap="round" stroke-linejoin="round"/>
<path d="M3.0918 2.90625L4.44496 4.25877" stroke="#00357C" stroke-linecap="round" stroke-linejoin="round"/>
<path d="M13.9118 2.90625L12.5593 4.25877" stroke="#00357C" stroke-linecap="round" stroke-linejoin="round"/>
<path d="M1.16675 8.31836H3.07979" stroke="#00357C" stroke-linecap="round" stroke-linejoin="round"/>
<path d="M15.8344 8.31836H13.9214" stroke="#00357C" stroke-linecap="round" stroke-linejoin="round"/>
<path d="M12.3265 8.31858C12.3272 7.66052 12.1582 7.0134 11.8358 6.43974C11.5134 5.86608 11.0484 5.38528 10.4859 5.04379C9.92339 4.70229 9.28231 4.51166 8.62459 4.4903C7.96688 4.46894 7.31478 4.61758 6.73129 4.92185C6.1478 5.22613 5.65265 5.67575 5.29369 6.22729C4.93473 6.77882 4.72408 7.41361 4.68211 8.07033C4.64014 8.72705 4.76825 9.38349 5.05408 9.97624C5.33991 10.569 5.77379 11.078 6.31379 11.4541C6.39824 11.5128 6.46722 11.5911 6.51485 11.6822C6.56249 11.7734 6.58736 11.8747 6.58736 11.9776V12.4635C6.58736 12.5481 6.62095 12.6292 6.68074 12.689C6.74054 12.7488 6.82164 12.7824 6.9062 12.7824H10.0946C10.1792 12.7824 10.2603 12.7488 10.3201 12.689C10.3799 12.6292 10.4134 12.5481 10.4134 12.4635V11.977C10.4134 11.8741 10.4383 11.7728 10.486 11.6816C10.5336 11.5904 10.6026 11.5122 10.687 11.4534C11.1932 11.1022 11.6067 10.6336 11.8923 10.0876C12.1778 9.54168 12.3268 8.93468 12.3265 8.31858V8.31858Z" stroke="#00357C" stroke-linecap="round" stroke-linejoin="round"/>
</svg>
