<svg width="40" height="40" viewBox="0 0 40 40" fill="none" xmlns="http://www.w3.org/2000/svg">
    <rect width="40" height="40" rx="16" fill="white"/>
    <g clip-path="url(#clip0_5203_157448)">
        <path d="M18.6484 24.2499C18.6484 25.6025 19.1858 26.8997 20.1422 27.8561C21.0986 28.8126 22.3958 29.3499 23.7484 29.3499C25.101 29.3499 26.3982 28.8126 27.3547 27.8561C28.3111 26.8997 28.8484 25.6025 28.8484 24.2499C28.8484 22.8973 28.3111 21.6001 27.3547 20.6437C26.3982 19.6872 25.101 19.1499 23.7484 19.1499C22.3958 19.1499 21.0986 19.6872 20.1422 20.6437C19.1858 21.6001 18.6484 22.8973 18.6484 24.2499Z" stroke="#0D1724" stroke-linecap="round" stroke-linejoin="round"/>
        <path fill-rule="evenodd" clip-rule="evenodd" d="M23.949 24.4502C23.949 24.5882 23.837 24.7002 23.699 24.7002C23.561 24.7002 23.449 24.5882 23.449 24.4502V23.4502C23.449 23.3122 23.561 23.2002 23.699 23.2002C23.837 23.2002 23.949 23.3122 23.949 23.4502V24.4502ZM23.699 25.4502C23.561 25.4502 23.449 25.3382 23.449 25.2002C23.449 25.0622 23.561 24.9502 23.699 24.9502C23.837 24.9502 23.949 25.0622 23.949 25.2002C23.949 25.3382 23.837 25.4502 23.699 25.4502ZM26.3393 25.2759L24.4213 22.0962C24.2716 21.8482 24.0015 21.7002 23.699 21.7002C23.3965 21.7002 23.1265 21.8482 22.9768 22.0962L21.0588 25.2759C20.9168 25.5117 20.9126 25.7952 21.0476 26.0342C21.1923 26.2909 21.4736 26.4502 21.7811 26.4502H25.6171C25.9246 26.4502 26.2058 26.2909 26.3506 26.0342C26.4856 25.7952 26.4813 25.5117 26.3393 25.2759Z" fill="#FDAC42"/>
        <path d="M9.9375 24.4625C9.93815 23.5139 10.1738 22.5804 10.6235 21.7452C11.0732 20.91 11.7228 20.1993 12.5143 19.6766C13.3058 19.1539 14.2144 18.8355 15.1591 18.7498C16.1037 18.6641 17.0549 18.8139 17.9275 19.1857" stroke="#0D1724" stroke-linecap="round" stroke-linejoin="round"/>
        <path d="M12.6523 12.1638C13.1954 12.7269 13.8464 13.1747 14.5664 13.4805C15.2863 13.7863 16.0606 13.9438 16.8428 13.9437C17.6355 13.9443 18.42 13.7829 19.148 13.4694" stroke="#0D1724" stroke-linecap="round" stroke-linejoin="round"/>
        <path d="M12.168 13.9438C12.168 14.8737 12.5374 15.7655 13.1949 16.423C13.8525 17.0806 14.7443 17.45 15.6742 17.45C16.6041 17.45 17.496 17.0806 18.1535 16.423C18.8111 15.7655 19.1805 14.8737 19.1805 13.9438C19.1805 13.0138 18.8111 12.122 18.1535 11.4645C17.496 10.8069 16.6041 10.4375 15.6742 10.4375C14.7443 10.4375 13.8525 10.8069 13.1949 11.4645C12.5374 12.122 12.168 13.0138 12.168 13.9438V13.9438Z" stroke="#0D1724" stroke-linecap="round" stroke-linejoin="round"/>
    </g>
    <defs>
        <clipPath id="clip0_5203_157448">
            <rect width="20.4" height="20.4" fill="white" transform="translate(9.30078 9.80005)"/>
        </clipPath>
    </defs>
</svg>
