<svg width="129" height="87" viewBox="0 0 129 87" fill="none" xmlns="http://www.w3.org/2000/svg">
<path opacity="0.1" d="M175 87.8525H129.309C129.309 64.912 110.456 45.6597 87.463 45.6597C64.5437 45.7334 45.7647 64.912 45.7647 87.8525H0C0 39.7586 39.2586 0 87.537 0C135.741 0 175 39.7586 175 87.8525Z" fill="#73DFE7"/>
<path d="M87.5371 5.67969C78.5172 5.67969 69.867 7.15496 61.7344 9.81045L72.9722 44.6269C77.5561 43.0778 82.4357 42.2664 87.611 42.2664C93.156 42.2664 98.4792 43.2254 103.433 45.0695L115.114 10.4006C106.464 7.37625 97.1484 5.67969 87.5371 5.67969Z" fill="#73DFE7"/>
<path d="M169.899 87.8525C169.899 71.0344 164.798 55.3228 156.074 42.2666L126.648 64.1744C130.863 71.0344 133.302 79.1484 133.302 87.7788H169.899V87.8525Z" fill="#73DFE7"/>
<path d="M5.17578 87.8523H41.8467C41.8467 79.1482 44.2865 71.0342 48.5746 64.1004L19.371 41.75C10.425 54.8799 5.17578 70.8129 5.17578 87.8523Z" fill="#73DFE7"/>
<path d="M19.3711 41.7502L48.5008 64.1006C54.0458 55.0276 62.696 48.0939 72.8988 44.627L61.7348 9.81055C44.3605 15.5641 29.4999 26.9237 19.3711 41.7502Z" fill="#73DFE7"/>
<path d="M115.041 10.4004L103.359 45.0693C113.119 48.6837 121.325 55.47 126.648 64.2478L156.074 42.34C146.241 27.6611 131.898 16.3752 115.041 10.4004Z" fill="#73DFE7"/>
<path opacity="0.5" d="M5.17578 87.8523H41.8467C41.8467 79.1482 44.2865 71.0342 48.5746 64.1004L19.371 41.75C10.425 54.8799 5.17578 70.8129 5.17578 87.8523Z" fill="white"/>
<path opacity="0.3" d="M19.3711 41.7502L48.5008 64.1006C54.0458 55.0276 62.696 48.0939 72.8988 44.627L61.7348 9.81055C44.3605 15.5641 29.4999 26.9237 19.3711 41.7502Z" fill="white"/>
<path opacity="0.3" d="M115.041 10.4004L103.359 45.0693C113.119 48.6837 121.325 55.47 126.648 64.2478L156.074 42.34C146.241 27.6611 131.898 16.3752 115.041 10.4004Z" fill="black"/>
<path opacity="0.5" d="M169.899 87.8525C169.899 71.0344 164.798 55.3228 156.074 42.2666L126.648 64.1744C130.863 71.0344 133.302 79.1484 133.302 87.7788H169.899V87.8525Z" fill="black"/>
</svg>
