<svg width="24" height="24" viewBox="0 0 24 24" fill="none" xmlns="http://www.w3.org/2000/svg">
<path d="M20 11.7256C20 11.3459 19.7178 11.0321 19.3518 10.9824L19.25 10.9756H4.25C3.83579 10.9756 3.5 11.3114 3.5 11.7256C3.5 12.1053 3.78215 12.4191 4.14823 12.4687L4.25 12.4756L19.25 12.4756C19.6642 12.4756 20 12.1398 20 11.7256Z" fill="black" stroke="black" stroke-width="0.3"/>
<path d="M10.829 6.23271C11.1225 5.94045 11.1235 5.46558 10.8313 5.17206C10.5656 4.90522 10.149 4.88012 9.85489 5.09734L9.77062 5.16977L3.72062 11.1938C3.45298 11.4603 3.42863 11.8784 3.64759 12.1724L3.72057 12.2567L9.77057 18.2817C10.0641 18.574 10.5389 18.573 10.8312 18.2795C11.0969 18.0127 11.1203 17.5959 10.9018 17.3028L10.829 17.2188L5.313 11.7249L10.829 6.23271Z" fill="black" stroke="black" stroke-width="0.3"/>
</svg>
