<svg width="148" height="148" viewBox="0 0 148 148" fill="none" xmlns="http://www.w3.org/2000/svg">
<mask id="mask0_1221_11705" style="mask-type:alpha" maskUnits="userSpaceOnUse" x="0" y="0" width="148" height="148">
<rect width="148" height="148" fill="#C4C4C4"/>
</mask>
<g mask="url(#mask0_1221_11705)">
<path d="M117 71.7895C117 69.3886 116.046 67.086 114.349 65.3883C112.651 63.6906 110.348 62.7368 107.947 62.7368H49.1054C46.7045 62.7368 44.4019 63.6906 42.7042 65.3883C41.0065 67.086 40.0527 69.3886 40.0527 71.7895V117.053C40.0527 119.454 41.0065 121.756 42.7042 123.454C44.4019 125.152 46.7045 126.105 49.1054 126.105H107.947C110.348 126.105 112.651 125.152 114.349 123.454C116.046 121.756 117 119.454 117 117.053V71.7895ZM53.6317 46.8947C53.6317 40.2922 56.2545 33.9602 60.9232 29.2915C65.5918 24.6228 71.9239 22 78.5264 22C85.1289 22 91.461 24.6228 96.1297 29.2915C100.798 33.9602 103.421 40.2922 103.421 46.8947V62.7368H53.6317V46.8947Z" fill="#00357C"/>
<path d="M107.947 71.7899C107.947 69.389 106.994 67.0865 105.296 65.3888C103.598 63.6911 101.296 62.7373 98.8947 62.7373H40.0526C37.6517 62.7373 35.3492 63.6911 33.6515 65.3888C31.9538 67.0865 31 69.389 31 71.7899V117.053C31 119.454 31.9538 121.757 33.6515 123.454C35.3492 125.152 37.6517 126.106 40.0526 126.106H98.8947C101.296 126.106 103.598 125.152 105.296 123.454C106.994 121.757 107.947 119.454 107.947 117.053V71.7899Z" fill="white" stroke="#282C3F"/>
<path d="M107.947 71.7895C107.947 69.3886 106.994 67.086 105.296 65.3883C103.598 63.6906 101.296 62.7368 98.8947 62.7368H40.0526C37.6517 62.7368 35.3492 63.6906 33.6515 65.3883C31.9538 67.086 31 69.3886 31 71.7895V117.053C31 119.454 31.9538 121.756 33.6515 123.454C35.3492 125.152 37.6517 126.105 40.0526 126.105H98.8947C101.296 126.105 103.598 125.152 105.296 123.454C106.994 121.756 107.947 119.454 107.947 117.053V71.7895ZM44.5789 46.8947C44.5789 40.2922 47.2018 33.9602 51.8704 29.2915C56.5391 24.6228 62.8712 22 69.4737 22C76.0762 22 82.4083 24.6228 87.0769 29.2915C91.7456 33.9602 94.3684 40.2922 94.3684 46.8947V62.7368H44.5789V46.8947Z" fill="white" stroke="#1D1D1B"/>
<path d="M69.4738 100.079C70.5928 100.079 71.6867 99.7476 72.6172 99.1259C73.5476 98.5042 74.2728 97.6206 74.701 96.5867C75.1293 95.5529 75.2413 94.4153 75.023 93.3178C74.8047 92.2202 74.2658 91.2121 73.4745 90.4208C72.6833 89.6296 71.6751 89.0907 70.5776 88.8724C69.4801 88.6541 68.3425 88.7661 67.3086 89.1944C66.2748 89.6226 65.3911 90.3478 64.7694 91.2782C64.1477 92.2086 63.8159 93.3025 63.8159 94.4216C63.8159 95.9221 64.412 97.3612 65.4731 98.4223C66.5341 99.4834 67.9732 100.079 69.4738 100.079Z" fill="#555770" stroke="#282C3F" stroke-width="2" stroke-linecap="round" stroke-linejoin="round"/>
</g>
</svg>
