<svg width="72" height="72" viewBox="0 0 72 72" fill="none" xmlns="http://www.w3.org/2000/svg">
<path d="M52.4747 37.0968V23.8773C52.4736 20.4023 51.0923 17.0701 48.6347 14.6133C46.1771 12.1565 42.8444 10.7764 39.3694 10.7764H12.9941C12.4124 10.7764 11.8545 11.0075 11.4432 11.4188C11.0319 11.8301 10.8008 12.388 10.8008 12.9697V59.0304C10.8008 59.6121 11.0319 60.17 11.4432 60.5814C11.8545 60.9927 12.4124 61.2238 12.9941 61.2238H19.526" stroke="#282C3F" stroke-linecap="round" stroke-linejoin="round"/>
<path d="M41.5078 10.9497V19.5499C41.5078 20.1316 41.7389 20.6895 42.1502 21.1008C42.5616 21.5122 43.1195 21.7433 43.7012 21.7433H52.2992" fill="#00B8B7"/>
<path d="M41.5078 10.9497V19.5499C41.5078 20.1316 41.7389 20.6895 42.1502 21.1008C42.5616 21.5122 43.1195 21.7433 43.7012 21.7433H52.2992" stroke="#282C3F" stroke-linecap="round" stroke-linejoin="round"/>
<path d="M52.2988 21.7429V13.1427C52.2988 12.561 52.0677 12.0031 51.6564 11.5918C51.2451 11.1805 50.6872 10.9494 50.1055 10.9494H41.5075" fill="#00B8B7"/>
<path d="M52.2988 21.7429V13.1427C52.2988 12.561 52.0677 12.0031 51.6564 11.5918C51.2451 11.1805 50.6872 10.9494 50.1055 10.9494H41.5075" stroke="#282C3F" stroke-linecap="round" stroke-linejoin="round"/>
<path d="M34.8799 48.0635C34.8799 49.2269 34.4177 50.3427 33.5951 51.1654C32.7724 51.9881 31.6566 52.4502 30.4932 52.4502H26.1064V43.6768H30.4932C31.6566 43.6768 32.7724 44.1389 33.5951 44.9616C34.4177 45.7843 34.8799 46.9001 34.8799 48.0635Z" stroke="#282C3F" stroke-linecap="round" stroke-linejoin="round"/>
<path d="M26.1064 61.2217V52.4482" stroke="#282C3F" stroke-linecap="round" stroke-linejoin="round"/>
<path d="M39.2666 43.6768C41.5935 43.6768 43.825 44.6011 45.4704 46.2464C47.1157 47.8918 48.0401 50.1234 48.0401 52.4502C48.0401 54.7771 47.1157 57.0087 45.4704 58.654C43.825 60.2993 41.5935 61.2237 39.2666 61.2237V43.6768Z" stroke="#282C3F" stroke-linecap="round" stroke-linejoin="round"/>
<path d="M52.4268 61.2237V46.9668C52.4268 46.0942 52.7734 45.2574 53.3904 44.6404C54.0074 44.0234 54.8442 43.6768 55.7168 43.6768H61.2002" stroke="#282C3F" stroke-linecap="round" stroke-linejoin="round"/>
<path d="M52.4268 52.4482H57.9102" stroke="#282C3F" stroke-linecap="round" stroke-linejoin="round"/>
</svg>
