<svg width="40" height="40" viewBox="0 0 40 40" fill="none" xmlns="http://www.w3.org/2000/svg">
<path d="M18.5712 25.3999L16.9737 26.9974L13.0137 23.0374L14.6112 21.4399L18.5712 25.3999Z" fill="#00CAF1" stroke="#282C3F" stroke-linecap="round" stroke-linejoin="round"/>
<path d="M31.9363 8.71625C31.6551 10.1337 30.9913 12.98 30.1026 13.8687C28.8763 15.0837 21.7888 22.1712 18.5713 25.4L14.6113 21.44C17.9638 18.065 25.5126 10.505 26.1201 9.88625C27.0088 9.00875 29.8551 8.345 31.2726 8.0525C31.3634 8.03408 31.4574 8.03886 31.5459 8.06639C31.6344 8.09392 31.7145 8.14331 31.7788 8.21C31.8442 8.27527 31.8927 8.35547 31.9201 8.44367C31.9476 8.53187 31.9531 8.62542 31.9363 8.71625Z" fill="#00CAF1"/>
<path d="M16.723 23.5516L14.6113 21.44C17.9638 18.065 25.5126 10.505 26.1201 9.88625C27.0088 9.00875 29.8551 8.345 31.2726 8.0525C31.3634 8.03408 31.4574 8.03886 31.5459 8.06639C31.6344 8.09392 31.7145 8.14331 31.7788 8.21L16.723 23.5516Z" fill="#D7F7FF"/>
<path d="M31.9363 8.71625C31.6551 10.1337 30.9913 12.98 30.1026 13.8687C28.8763 15.0837 21.7888 22.1712 18.5713 25.4L14.6113 21.44C17.9638 18.065 25.5126 10.505 26.1201 9.88625C27.0088 9.00875 29.8551 8.345 31.2726 8.0525C31.3634 8.03408 31.4574 8.03886 31.5459 8.06639C31.6344 8.09392 31.7145 8.14331 31.7788 8.21C31.8442 8.27527 31.8927 8.35547 31.9201 8.44367C31.9476 8.53187 31.9531 8.62542 31.9363 8.71625V8.71625Z" stroke="#282C3F" stroke-linecap="round" stroke-linejoin="round"/>
<path d="M14.6118 21.4404L14.6001 21.4287" stroke="#282C3F" stroke-linecap="round" stroke-linejoin="round"/>
<path d="M22.9418 21.0293C22.9931 22.7635 22.86 24.4982 22.5447 26.2043C22.1686 27.0932 21.6281 27.9031 20.9517 28.5915L18.1201 31.4187C18.0375 31.5017 17.9311 31.5569 17.8156 31.5766C17.7002 31.5962 17.5815 31.5794 17.4761 31.5283C17.3707 31.4773 17.2838 31.3947 17.2277 31.2919C17.1715 31.1892 17.1488 31.0714 17.1627 30.9552L17.7128 26.2572L22.9418 21.0293Z" fill="#D7F7FF" stroke="#282C3F" stroke-linecap="round" stroke-linejoin="round"/>
<path d="M18.9639 17.0515C17.2216 16.987 15.4774 17.1081 13.7608 17.4126C12.8809 17.8014 12.0824 18.353 11.4073 19.0382L8.58351 21.8608C8.50056 21.9437 8.44556 22.0503 8.42619 22.1659C8.40682 22.2816 8.42406 22.4003 8.47549 22.5057C8.52692 22.611 8.60997 22.6977 8.71305 22.7535C8.81612 22.8093 8.93406 22.8316 9.05039 22.8171L13.7754 22.2388L18.9639 17.0515Z" fill="#D7F7FF" stroke="#282C3F" stroke-linecap="round" stroke-linejoin="round"/>
<path d="M14.5888 26.994C15.3853 27.7894 15.0534 28.9166 14.1917 29.7795C13.385 30.585 10.3273 31.5041 8.76241 31.9339C8.66764 31.9587 8.56803 31.9584 8.47343 31.9329C8.37884 31.9073 8.29255 31.8576 8.22311 31.7885C8.15366 31.7194 8.10347 31.6333 8.0775 31.5389C8.05153 31.4444 8.05068 31.3448 8.07504 31.2499C8.50029 29.6805 9.41041 26.6138 10.2125 25.806C11.0867 24.933 12.2027 24.6135 12.998 25.4089" fill="#00CAF1"/>
<path d="M14.5888 26.994C15.3853 27.7894 15.0534 28.9166 14.1917 29.7795C13.385 30.585 10.3273 31.5041 8.76241 31.9339C8.66764 31.9587 8.56803 31.9584 8.47343 31.9329C8.37884 31.9073 8.29255 31.8576 8.22311 31.7885C8.15366 31.7194 8.10347 31.6333 8.0775 31.5389C8.05153 31.4444 8.05068 31.3448 8.07504 31.2499C8.50029 29.6805 9.41041 26.6138 10.2125 25.806C11.0867 24.933 12.2027 24.6135 12.998 25.4089" stroke="#282C3F" stroke-linecap="round" stroke-linejoin="round"/>
</svg>
