<svg width="24" height="24" viewBox="0 0 24 24" fill="none" xmlns="http://www.w3.org/2000/svg">
<path d="M12 20.25C16.5563 20.25 20.25 16.5563 20.25 12C20.25 7.44365 16.5563 3.75 12 3.75C7.44365 3.75 3.75 7.44365 3.75 12C3.75 16.5563 7.44365 20.25 12 20.25Z" fill="white"/>
<path d="M12 6.37487C13.9593 6.37608 15.854 7.0749 17.3449 8.34613C18.8357 9.61737 19.8252 11.3779 20.136 13.3124C20.3185 12.188 20.266 11.0379 19.9819 9.93482C19.6979 8.8317 19.1883 7.7994 18.4854 6.903C17.7825 6.00661 16.9015 5.26556 15.898 4.72659C14.8945 4.18761 13.7901 3.8624 12.6547 3.77144C11.5192 3.68049 10.3772 3.82578 9.30064 4.19815C8.2241 4.57051 7.23639 5.16188 6.39977 5.93496C5.56316 6.70804 4.89578 7.64607 4.43973 8.68991C3.98367 9.73375 3.74883 10.8608 3.75 11.9999C3.75323 12.4397 3.79135 12.8786 3.864 13.3124C4.1748 11.3779 5.16427 9.61737 6.65512 8.34613C8.14596 7.0749 10.0408 6.37608 12 6.37487Z" fill="#00B8B7"/>
<path d="M12 15.75C11.9629 15.75 11.9267 15.761 11.8958 15.7816C11.865 15.8022 11.841 15.8315 11.8268 15.8657C11.8126 15.9 11.8089 15.9377 11.8161 15.9741C11.8233 16.0104 11.8412 16.0439 11.8674 16.0701C11.8936 16.0963 11.927 16.1142 11.9634 16.1214C11.9998 16.1286 12.0375 16.1249 12.0718 16.1107C12.106 16.0965 12.1353 16.0725 12.1559 16.0417C12.1765 16.0108 12.1875 15.9746 12.1875 15.9375C12.1875 15.8878 12.1677 15.8401 12.1326 15.8049C12.0974 15.7698 12.0497 15.75 12 15.75Z" stroke="#282C3F" stroke-linecap="round" stroke-linejoin="round"/>
<path d="M9.75 10.4997C9.75006 10.094 9.85978 9.69594 10.0675 9.34756C10.2753 8.99917 10.5734 8.71342 10.9303 8.52057C11.2871 8.32771 11.6895 8.23491 12.0948 8.252C12.5 8.26908 12.8932 8.39541 13.2325 8.61761C13.5719 8.83981 13.8449 9.14962 14.0226 9.51426C14.2003 9.8789 14.2761 10.2848 14.242 10.689C14.208 11.0932 14.0653 11.4807 13.829 11.8104C13.5928 12.1402 13.2718 12.3999 12.9 12.5622C12.632 12.6791 12.4041 12.8718 12.2442 13.1166C12.0843 13.3614 11.9994 13.6475 12 13.9399V14.2497" stroke="#282C3F" stroke-linecap="round" stroke-linejoin="round"/>
<path d="M12 20.25C16.5563 20.25 20.25 16.5563 20.25 12C20.25 7.44365 16.5563 3.75 12 3.75C7.44365 3.75 3.75 7.44365 3.75 12C3.75 16.5563 7.44365 20.25 12 20.25Z" stroke="#282C3F" stroke-linecap="round" stroke-linejoin="round"/>
</svg>
