<svg width="24" height="24" viewBox="0 0 24 24" fill="none" xmlns="http://www.w3.org/2000/svg">
<mask id="path-1-outside-1_3037_3557" maskUnits="userSpaceOnUse" x="2.6001" y="4.23438" width="19" height="17" fill="black">
<rect fill="white" x="2.6001" y="4.23438" width="19" height="17"/>
<path d="M4.89241 5.23438C4.54966 5.23438 4.22096 5.37101 3.97861 5.61422C3.73625 5.85743 3.6001 6.18729 3.6001 6.53124V18.203C3.6001 18.547 3.73625 18.8769 3.97861 19.1201C4.22096 19.3633 4.54966 19.4999 4.89241 19.4999H19.1078C19.4505 19.4999 19.7792 19.3633 20.0216 19.1201C20.2639 18.8769 20.4001 18.547 20.4001 18.203V6.53124C20.4001 6.18729 20.2639 5.85743 20.0216 5.61422C19.7792 5.37101 19.4505 5.23438 19.1078 5.23438H16.5232"/>
</mask>
<path d="M4.89241 5.23438C4.54966 5.23438 4.22096 5.37101 3.97861 5.61422C3.73625 5.85743 3.6001 6.18729 3.6001 6.53124V18.203C3.6001 18.547 3.73625 18.8769 3.97861 19.1201C4.22096 19.3633 4.54966 19.4999 4.89241 19.4999H19.1078C19.4505 19.4999 19.7792 19.3633 20.0216 19.1201C20.2639 18.8769 20.4001 18.547 20.4001 18.203V6.53124C20.4001 6.18729 20.2639 5.85743 20.0216 5.61422C19.7792 5.37101 19.4505 5.23438 19.1078 5.23438H16.5232" fill="white"/>
<path d="M4.89241 6.23438C5.44469 6.23438 5.89241 5.78666 5.89241 5.23437C5.89241 4.68209 5.44469 4.23438 4.89241 4.23438V6.23438ZM3.6001 6.53124H2.6001H3.6001ZM3.6001 18.203H2.6001H3.6001ZM19.1078 5.23438V4.23438V5.23438ZM16.5232 4.23438C15.9709 4.23438 15.5232 4.68209 15.5232 5.23438C15.5232 5.78666 15.9709 6.23438 16.5232 6.23438V4.23438ZM4.89241 4.23438C4.28331 4.23438 3.69987 4.47722 3.27026 4.90836L4.68696 6.32008C4.74205 6.26479 4.81602 6.23438 4.89241 6.23438V4.23438ZM3.27026 4.90836C2.84076 5.33937 2.6001 5.92321 2.6001 6.53124H4.6001C4.6001 6.45137 4.63175 6.37548 4.68696 6.32008L3.27026 4.90836ZM2.6001 6.53124V18.203H4.6001V6.53124H2.6001ZM2.6001 18.203C2.6001 18.8111 2.84076 19.3949 3.27026 19.8259L4.68696 18.4142C4.63175 18.3588 4.6001 18.2829 4.6001 18.203H2.6001ZM3.27026 19.8259C3.69987 20.2571 4.28331 20.4999 4.89241 20.4999V18.4999C4.81602 18.4999 4.74205 18.4695 4.68696 18.4142L3.27026 19.8259ZM4.89241 20.4999H19.1078V18.4999H4.89241V20.4999ZM19.1078 20.4999C19.7169 20.4999 20.3003 20.2571 20.7299 19.8259L19.3132 18.4142C19.2581 18.4695 19.1842 18.4999 19.1078 18.4999V20.4999ZM20.7299 19.8259C21.1594 19.3949 21.4001 18.8111 21.4001 18.203H19.4001C19.4001 18.2829 19.3684 18.3588 19.3132 18.4142L20.7299 19.8259ZM21.4001 18.203V6.53124H19.4001V18.203H21.4001ZM21.4001 6.53124C21.4001 5.92321 21.1594 5.33937 20.7299 4.90836L19.3132 6.32008C19.3684 6.37548 19.4001 6.45137 19.4001 6.53124H21.4001ZM20.7299 4.90836C20.3003 4.47722 19.7169 4.23438 19.1078 4.23438L19.1078 6.23438C19.1842 6.23438 19.2581 6.26479 19.3132 6.32008L20.7299 4.90836ZM19.1078 4.23438H16.5232V6.23438H19.1078V4.23438Z" fill="#282C3F" mask="url(#path-1-outside-1_3037_3557)"/>
<path d="M9.65625 8.77783H14.1987" stroke="#282C3F" stroke-linecap="round" stroke-linejoin="round"/>
<path d="M9.65625 10.8037H14.1987" stroke="#282C3F" stroke-linecap="round" stroke-linejoin="round"/>
<path d="M11.2713 8.77783C11.9139 8.77783 12.5301 9.01069 12.9844 9.42517C13.4387 9.83966 13.694 10.4018 13.694 10.988C13.694 11.5742 13.4387 12.1363 12.9844 12.5508C12.5301 12.9653 11.9139 13.1982 11.2713 13.1982H9.65625L13.694 16.8818" stroke="#282C3F" stroke-linecap="round" stroke-linejoin="round"/>
<rect x="7.0498" y="3.6001" width="9.6" height="1.8" fill="#00B8B7"/>
<path d="M7.2002 2.69995V6.43327" stroke="#282C3F" stroke-linecap="round" stroke-linejoin="round"/>
<path d="M16.5 2.69995V6.43327" stroke="#282C3F" stroke-linecap="round" stroke-linejoin="round"/>
</svg>
